# File created by Blade
# Date/Time:  Tue Apr 07 20:22:24 2015
#---------------------------------------------------------
:version 1.10
:name HOM
:units
  mass 1.0
  length 1.000000
  angle deg
:documentation
     Acclaim Skeleton File
:root
   axis xyz
   order TX TY TZ RX RY RZ
   position 0.000000 0.000000 0.000000
   orientation 0 0 0
:bonedata
   begin
      id 1
      name Spine_dum
      direction 0.000000 1.000000 0.000000
      length 4.885285
      axis 0.0 0.0 0.0 xyz
   end
   begin
      id 2
      name LeftUpLeg_dum
      direction 1.000000 0.000000 0.000000
      length 2.672193
      axis 0.0 0.0 0.0 xyz
   end
   begin
      id 3
      name RightUpLeg_dum
      direction -1.000000 0.000000 0.000000
      length 2.672193
      axis 0.0 0.0 0.0 xyz
   end
   begin
      id 4
      name Spine
      direction 0.000000 1.000000 0.000000
      length 0.000000
      axis 0.0 0.0 0.0 xyz
      dof rx ry rz
   end
   begin
      id 5
      name Spine_dum1
      direction 0.000000 1.000000 0.000000
      length 16.494159
      axis 0.0 0.0 0.0 xyz
   end
   begin
      id 6
      name Spine_dum2
      direction 0.000000 1.000000 0.000000
      length 10.663448
      axis 0.0 0.0 0.0 xyz
   end
   begin
      id 7
      name Spine_dum3
      direction 0.000000 1.000000 0.000000
      length 10.663448
      axis 0.0 0.0 0.0 xyz
   end
   begin
      id 8
      name Head
      direction 0.000000 1.000000 0.000000
      length 4.527550
      axis 0.0 0.0 0.0 xyz
      dof rx ry rz
   end
   begin
      id 9
      name LeftShoulder
      direction 1.000000 0.000000 0.000000
      length 7.531907
      axis 0.0 0.0 -90.0 xyz
      dof rx ry rz
   end
   begin
      id 10
      name LeftArm
      direction 1.000000 0.000000 0.000000
      length 10.229199
      axis 0.0 0.0 -90.0 xyz
      dof rx ry rz
   end
   begin
      id 11
      name LeftForeArm
      direction 1.000000 0.000000 0.000000
      length 8.673495
      axis 0.0 0.0 -90.0 xyz
      dof ry rz rx
   end
   begin
      id 12
      name LeftHand
      direction 0.000000 0.000000 0.000000
      length 0.000000
      axis 0.0 0.0 -90.0 xyz
      dof rx ry rz
   end
   begin
      id 13
      name LeftHand_dum1
      direction 0.000000 0.000000 0.000000
      length 0.000000
      axis 0.0 0.0 -90.0 xyz
   end
   begin
      id 14
      name LeftHand_dum2
      direction 1.000000 0.000000 0.000000
      length 3.937000
      axis 0.0 0.0 -90.0 xyz
   end
   begin
      id 15
      name LeftHandThumb1
      direction 0.000000 0.000000 1.000000
      length 3.937000
      axis 0.0 0.0 -90.0 xyz
      dof rx rz ry
   end
   begin
      id 16
      name RightShoulder
      direction -1.000000 0.000000 0.000000
      length 7.531907
      axis 0.0 0.0 90.0 xyz
      dof rx ry rz
   end
   begin
      id 17
      name RightArm
      direction -1.000000 0.000000 0.000000
      length 10.229199
      axis 0.0 0.0 90.0 xyz
      dof rx ry rz
   end
   begin
      id 18
      name RightForeArm
      direction -1.000000 0.000000 0.000000
      length 8.673495
      axis 0.0 0.0 90.0 xyz
      dof ry rz rx
   end
   begin
      id 19
      name RightHand
      direction 0.000000 0.000000 0.000000
      length 0.000000
      axis 0.0 0.0 90.0 xyz
      dof rx ry rz
   end
   begin
      id 20
      name RightHand_dum1
      direction 0.000000 0.000000 0.000000
      length 0.000000
      axis 0.0 0.0 90.0 xyz
   end
   begin
      id 21
      name RightHand_dum2
      direction -1.000000 0.000000 0.000000
      length 3.937000
      axis 0.0 0.0 90.0 xyz
   end
   begin
      id 22
      name RightHandThumb1
      direction 0.000000 0.000000 1.000000
      length 3.937000
      axis 0.0 0.0 90.0 xyz
      dof rx rz ry
   end
   begin
      id 23
      name LeftUpLeg
      direction 0.000000 -1.000000 0.000000
      length 16.263388
      axis 0.0 0.0 0.0 xyz
      dof rx ry rz
   end
   begin
      id 24
      name LeftLeg
      direction 0.000000 -1.000000 0.000000
      length 14.328163
      axis 0.0 0.0 0.0 xyz
      dof rx ry rz
   end
   begin
      id 25
      name LeftFoot
      direction 0.000000 -0.258819 0.965926
      length 5.031290
      axis 15.0 0.0 0.0 xyz
      dof rx ry rz
   end
   begin
      id 26
      name LeftToeBase
      direction 0.000000 0.000000 1.000000
      length 2.952750
      axis 0.0 0.0 0.0 xyz
      dof rx ry rz
   end
   begin
      id 27
      name RightUpLeg
      direction 0.000000 -1.000000 0.000000
      length 16.263388
      axis 0.0 0.0 0.0 xyz
      dof rx ry rz
   end
   begin
      id 28
      name RightLeg
      direction 0.000000 -1.000000 0.000000
      length 14.328163
      axis 0.0 0.0 0.0 xyz
      dof rx ry rz
   end
   begin
      id 29
      name RightFoot
      direction 0.000000 -0.258819 0.965926
      length 5.031290
      axis 15.0 0.0 0.0 xyz
      dof rx ry rz
   end
   begin
      id 30
      name RightToeBase
      direction 0.000000 0.000000 1.000000
      length 2.952750
      axis 0.0 0.0 0.0 xyz
      dof rx ry rz
   end
:hierarchy
   begin
      root Spine_dum LeftUpLeg_dum RightUpLeg_dum
      Spine_dum Spine
      LeftUpLeg_dum LeftUpLeg
      RightUpLeg_dum RightUpLeg
      Spine Spine_dum1 Spine_dum2 Spine_dum3
      Spine_dum1 Head
      Spine_dum2 LeftShoulder
      Spine_dum3 RightShoulder
      LeftShoulder LeftArm
      LeftArm LeftForeArm
      LeftForeArm LeftHand
      LeftHand LeftHand_dum1 LeftHand_dum2
      LeftHand_dum1 LeftHandThumb1
      RightShoulder RightArm
      RightArm RightForeArm
      RightForeArm RightHand
      RightHand RightHand_dum1 RightHand_dum2
      RightHand_dum1 RightHandThumb1
      LeftUpLeg LeftLeg
      LeftLeg LeftFoot
      LeftFoot LeftToeBase
      RightUpLeg RightLeg
      RightLeg RightFoot
      RightFoot RightToeBase
   end

# File created by Blade
# Date/Time:  Tue Apr 07 20:22:14 2015
# Frame Rate: 120.000 fps
#------------------------------------------------------
:FULLY-SPECIFIED
:DEGREES
156
root 3.195827 32.857254 -8.817226 14.672298 -4.585427 -2.910936
Spine -12.606236 -4.120798 -0.598511
Head 15.314570 -12.187366 6.497689
LeftShoulder -20.906097 46.434825 9.102738
LeftArm 48.472614 -6.829614 -96.980086
LeftForeArm 1.716973 -0.000000 12.150029
LeftHand 8.395350 -0.000000 12.501127
LeftHandThumb1 -26.253704 0.000000 33.147579
RightShoulder -6.406443 -5.546466 -13.319411
RightArm 15.875024 -7.802706 91.153781
RightForeArm 0.697669 0.000000 14.709626
RightHand 6.480440 -0.000000 1.060003
RightHandThumb1 -24.326973 -0.000000 -32.862282
LeftUpLeg -12.428098 -2.956013 2.943114
LeftLeg 3.927050 -0.000000 -0.000000
LeftFoot -10.220697 5.854841 -16.906448
LeftToeBase -6.653209 -0.000000 0.000000
RightUpLeg -11.257456 -3.496915 2.167013
RightLeg -2.982025 -0.000000 0.000000
RightFoot -2.171138 -1.546044 8.369810
RightToeBase -0.679002 -0.000000 0.000000
157
root 3.232049 32.862311 -8.851442 14.758618 -4.748301 -3.035619
Spine -12.516674 -3.965319 -0.623633
Head 15.091634 -12.330001 6.830130
LeftShoulder -20.768244 46.464156 9.224195
LeftArm 48.352092 -5.638181 -96.626361
LeftForeArm 1.155244 -0.000000 11.603126
LeftHand 8.528689 -0.000000 12.019888
LeftHandThumb1 -26.253704 0.000000 33.147579
RightShoulder -6.313922 -5.538633 -13.128177
RightArm 15.968917 -8.707009 91.572888
RightForeArm 0.534108 -0.000000 14.613862
RightHand 6.236512 -0.000000 1.513569
RightHandThumb1 -24.326973 -0.000000 -32.862282
LeftUpLeg -12.543969 -2.659987 2.952289
LeftLeg 3.912924 -0.000000 -0.000000
LeftFoot -10.119422 5.788818 -16.835768
LeftToeBase -6.651795 -0.000000 0.000000
RightUpLeg -11.531018 -3.525264 2.243092
RightLeg -2.739008 -0.000000 0.000000
RightFoot -2.153871 -1.351481 8.462210
RightToeBase -0.625732 -0.000000 0.000000
158
root 3.273147 32.867145 -8.887780 14.862757 -4.888027 -3.134120
Spine -12.445802 -3.794771 -0.674003
Head 14.870375 -12.521086 7.150756
LeftShoulder -20.607081 46.483580 9.372224
LeftArm 48.338991 -4.360042 -96.122794
LeftForeArm 0.489016 0.000000 10.911125
LeftHand 8.678032 -0.000000 11.636537
LeftHandThumb1 -26.253704 0.000000 33.147579
RightShoulder -6.254702 -5.523925 -12.945882
RightArm 16.035942 -9.732604 91.905912
RightForeArm 0.884131 -0.000000 14.594566
RightHand 6.218962 0.000000 1.816611
RightHandThumb1 -24.326973 -0.000000 -32.862282
LeftUpLeg -12.684809 -2.491689 2.959386
LeftLeg 3.892346 -0.000000 -0.000000
LeftFoot -10.020043 5.768752 -16.836489
LeftToeBase -6.658414 -0.000000 0.000000
RightUpLeg -11.847612 -3.581099 2.294645
RightLeg -2.451729 -0.000000 0.000000
RightFoot -2.175146 -1.160733 8.529915
RightToeBase -0.672578 -0.000000 0.000000
159
root 3.312200 32.871193 -8.923721 14.961313 -5.009190 -3.241657
Spine -12.374877 -3.659541 -0.701767
Head 14.658791 -12.668982 7.446703
LeftShoulder -20.398678 46.386232 9.576083
LeftArm 48.241751 -3.190235 -95.583411
LeftForeArm -0.287006 -0.000000 10.194467
LeftHand 8.973024 0.000000 11.115263
LeftHandThumb1 -26.253704 0.000000 33.147579
RightShoulder -6.158129 -5.540520 -12.792421
RightArm 16.158072 -10.486183 92.297776
RightForeArm 1.094872 -0.000000 14.464886
RightHand 6.172231 -0.000000 2.411486
RightHandThumb1 -24.326973 -0.000000 -32.862282
LeftUpLeg -12.823116 -2.368726 2.994006
LeftLeg 3.873352 -0.000000 -0.000000
LeftFoot -9.934732 5.763024 -16.843999
LeftToeBase -6.628742 -0.000000 0.000000
RightUpLeg -12.169782 -3.632777 2.359635
RightLeg -2.136284 -0.000000 0.000000
RightFoot -2.218887 -0.979897 8.596421
RightToeBase -0.624682 -0.000000 0.000000
160
root 3.355749 32.874689 -8.960435 15.080186 -5.098882 -3.326135
Spine -12.331709 -3.553768 -0.732007
Head 14.455580 -12.840854 7.714028
LeftShoulder -20.233847 46.297713 9.735650
LeftArm 48.237691 -2.025704 -94.961918
LeftForeArm -0.987784 -0.000000 9.415568
LeftHand 9.085535 -0.000000 10.389530
LeftHandThumb1 -26.253704 0.000000 33.147579
RightShoulder -6.048584 -5.535124 -12.675361
RightArm 16.256582 -11.074725 92.714312
RightForeArm 1.458583 -0.000000 14.357083
RightHand 6.070609 0.000000 2.752860
RightHandThumb1 -24.326973 -0.000000 -32.862282
LeftUpLeg -13.003703 -2.342704 3.025435
LeftLeg 3.883941 -0.000000 -0.000000
LeftFoot -9.864907 5.768250 -16.912080
LeftToeBase -6.668745 -0.000000 0.000000
RightUpLeg -12.517794 -3.710302 2.396653
RightLeg -1.813193 -0.000000 0.000000
RightFoot -2.246299 -0.766581 8.705897
RightToeBase -0.969801 -0.000000 0.000000
161
root 3.394888 32.877565 -8.992684 15.166375 -5.171667 -3.399293
Spine -12.269456 -3.447339 -0.796501
Head 14.268732 -13.031452 7.979492
LeftShoulder -20.011274 46.138257 9.975913
LeftArm 48.218856 -0.954026 -94.333551
LeftForeArm -1.734104 -0.000000 8.597424
LeftHand 9.279473 -0.000000 9.704344
LeftHandThumb1 -26.253704 0.000000 33.147579
RightShoulder -5.963929 -5.498634 -12.543252
RightArm 16.338047 -11.705610 93.075605
RightForeArm 1.811641 -0.000000 14.212454
RightHand 5.713260 -0.000000 3.319967
RightHandThumb1 -24.326973 -0.000000 -32.862282
LeftUpLeg -13.146175 -2.247415 3.037759
LeftLeg 3.891868 -0.000000 -0.000000
LeftFoot -9.772092 5.694891 -16.990970
LeftToeBase -6.646210 -0.000000 0.000000
RightUpLeg -12.811857 -3.770043 2.425575
RightLeg -1.514515 -0.000000 0.000000
RightFoot -2.300776 -0.613327 8.743103
RightToeBase -0.970387 -0.000000 0.000000
162
root 3.436833 32.880101 -9.028574 15.261226 -5.287942 -3.454405
Spine -12.212286 -3.312503 -0.885961
Head 14.073444 -13.160507 8.238818
LeftShoulder -19.855709 46.060872 10.140898
LeftArm 48.340546 -0.081640 -93.828412
LeftForeArm -2.347277 0.000000 7.795229
LeftHand 9.349086 0.000000 8.746033
LeftHandThumb1 -26.253704 0.000000 33.147579
RightShoulder -5.867190 -5.442558 -12.440947
RightArm 16.430925 -12.286362 93.422379
RightForeArm 2.263167 -0.000000 14.014686
RightHand 5.666548 0.000000 3.565871
RightHandThumb1 -24.326973 -0.000000 -32.862282
LeftUpLeg -13.287281 -2.136760 3.023342
LeftLeg 3.870964 -0.000000 -0.000000
LeftFoot -9.679961 5.650268 -17.047377
LeftToeBase -6.638370 -0.000000 0.000000
RightUpLeg -13.136703 -3.749393 2.411668
RightLeg -1.190647 -0.000000 0.000000
RightFoot -2.357397 -0.489485 8.769820
RightToeBase -0.979234 -0.000000 0.000000
163
root 3.475695 32.882070 -9.063284 15.332976 -5.443020 -3.512703
Spine -12.138218 -3.142662 -1.001940
Head 13.889124 -13.265139 8.516949
LeftShoulder -19.684490 45.965011 10.346355
LeftArm 48.459303 0.562398 -93.490692
LeftForeArm -2.790438 -0.000000 7.024150
LeftHand 9.262464 -0.000000 7.949881
LeftHandThumb1 -26.253704 0.000000 33.147579
RightShoulder -5.783400 -5.354502 -12.326910
RightArm 16.539009 -12.895626 93.693863
RightForeArm 2.846100 -0.000000 13.762260
RightHand 5.538266 -0.000000 4.058071
RightHandThumb1 -24.326973 -0.000000 -32.862282
LeftUpLeg -13.410082 -1.974676 2.999084
LeftLeg 3.888674 -0.000000 -0.000000
LeftFoot -9.652679 5.587856 -17.148838
LeftToeBase -6.516903 -0.000000 0.000000
RightUpLeg -13.439402 -3.654685 2.386698
RightLeg -0.865794 -0.000000 0.000000
RightFoot -2.405889 -0.405043 8.767268
RightToeBase -1.073284 -0.000000 0.000000
164
root 3.515192 32.884554 -9.095891 15.403423 -5.532534 -3.550019
Spine -12.074257 -3.041555 -1.124192
Head 13.716454 -13.384544 8.778035
LeftShoulder -19.484453 45.880285 10.579105
LeftArm 48.605538 0.763793 -93.573558
LeftForeArm -2.755618 0.000000 6.191822
LeftHand 9.269638 0.000000 6.862055
LeftHandThumb1 -26.253704 0.000000 33.147579
RightShoulder -5.708330 -5.265869 -12.225145
RightArm 16.682258 -13.577104 93.877546
RightForeArm 3.486681 -0.000000 13.461683
RightHand 5.263824 -0.000000 4.734124
RightHandThumb1 -24.326973 -0.000000 -32.862282
LeftUpLeg -13.518490 -1.765387 2.940920
LeftLeg 3.860501 -0.000000 -0.000000
LeftFoot -9.552240 5.477881 -17.172477
LeftToeBase -6.431225 -0.000000 0.000000
RightUpLeg -13.704730 -3.575029 2.345687
RightLeg -0.603432 -0.000000 0.000000
RightFoot -2.456220 -0.393715 8.783232
RightToeBase -1.103235 -0.000000 0.000000
165
root 3.556234 32.886468 -9.128109 15.467123 -5.583820 -3.604558
Spine -12.005360 -3.021556 -1.190690
Head 13.559579 -13.433114 9.008466
LeftShoulder -19.342090 45.786422 10.746328
LeftArm 48.673746 1.017024 -93.447492
LeftForeArm -3.025894 0.000000 5.539056
LeftHand 9.219449 -0.000000 6.131615
LeftHandThumb1 -26.253704 0.000000 33.147579
RightShoulder -5.544950 -5.084645 -12.174858
RightArm 16.728200 -14.222444 94.031087
RightForeArm 4.156465 -0.000000 13.208942
RightHand 5.090642 -0.000000 5.150030
RightHandThumb1 -24.326973 -0.000000 -32.862282
LeftUpLeg -13.597380 -1.663832 2.919123
LeftLeg 3.776546 -0.000000 -0.000000
LeftFoot -9.459302 5.444078 -17.221221
LeftToeBase -6.330017 -0.000000 0.000000
RightUpLeg -13.929914 -3.511564 2.326980
RightLeg -0.403990 -0.000000 0.000000
RightFoot -2.479118 -0.419949 8.798527
RightToeBase -1.112696 -0.000000 0.000000
166
root 3.594684 32.888084 -9.158375 15.523733 -5.640582 -3.665259
Spine -11.939990 -2.980832 -1.249616
Head 13.409141 -13.453583 9.174553
LeftShoulder -19.184572 45.694938 10.915725
LeftArm 48.736529 1.144074 -93.349778
LeftForeArm -3.197764 -0.000000 4.953901
LeftHand 9.022823 -0.000000 5.557011
LeftHandThumb1 -26.253704 0.000000 33.147579
RightShoulder -5.454325 -4.942355 -12.106381
RightArm 16.906530 -14.967321 94.061713
RightForeArm 4.879553 0.000000 12.835693
RightHand 4.967861 -0.000000 5.695374
RightHandThumb1 -24.326973 -0.000000 -32.862282
LeftUpLeg -13.646310 -1.562956 2.905387
LeftLeg 3.656700 -0.000000 -0.000000
LeftFoot -9.356619 5.405799 -17.274209
LeftToeBase -6.195398 -0.000000 0.000000
RightUpLeg -14.134544 -3.433570 2.320741
RightLeg -0.217050 -0.000000 0.000000
RightFoot -2.506035 -0.494646 8.797451
RightToeBase -1.229119 -0.000000 0.000000
167
root 3.631183 32.890549 -9.188621 15.598114 -5.645341 -3.748705
Spine -11.899936 -2.990465 -1.273719
Head 13.264486 -13.464753 9.350561
LeftShoulder -19.024197 45.653073 11.088095
LeftArm 48.793771 1.217378 -93.232890
LeftForeArm -3.598058 0.000000 4.488942
LeftHand 8.861048 -0.000000 5.038642
LeftHandThumb1 -26.253704 0.000000 33.147579
RightShoulder -5.350702 -4.809433 -12.033946
RightArm 17.110840 -15.717416 93.997005
RightForeArm 5.657601 0.000000 12.459691
RightHand 4.893532 -0.000000 6.270145
RightHandThumb1 -24.326973 -0.000000 -32.862282
LeftUpLeg -13.729881 -1.476584 2.924524
LeftLeg 3.565790 -0.000000 -0.000000
LeftFoot -9.266987 5.358896 -17.298028
LeftToeBase -6.101469 -0.000000 0.000000
RightUpLeg -14.355154 -3.436726 2.369414
RightLeg -0.023140 -0.000000 0.000000
RightFoot -2.531521 -0.544470 8.768842
RightToeBase -1.248779 -0.000000 0.000000
168
root 3.668499 32.892135 -9.215511 15.656324 -5.670012 -3.830142
Spine -11.856083 -2.992353 -1.296779
Head 13.141766 -13.433413 9.511786
LeftShoulder -18.904103 45.651929 11.223513
LeftArm 48.877101 1.210292 -93.123460
LeftForeArm -3.970972 -0.000000 4.110630
LeftHand 8.764331 -0.000000 4.919627
LeftHandThumb1 -26.253704 0.000000 33.147579
RightShoulder -5.235367 -4.630614 -11.980193
RightArm 17.273636 -16.375245 93.917876
RightForeArm 6.273168 -0.000000 12.098004
RightHand 4.585335 0.000000 6.904647
RightHandThumb1 -24.326973 -0.000000 -32.862282
LeftUpLeg -13.766010 -1.449717 2.946116
LeftLeg 3.429593 -0.000000 -0.000000
LeftFoot -9.190509 5.400687 -17.316715
LeftToeBase -5.872790 -0.000000 0.000000
RightUpLeg -14.530428 -3.414735 2.403742
RightLeg 0.123063 -0.000000 -0.000000
RightFoot -2.545871 -0.601706 8.762548
RightToeBase -1.131875 -0.000000 0.000000
